<?xml version="1.0" encoding="UTF-8"?>
<svg version="1.1" xmlns="http://www.w3.org/2000/svg" width="32" height="32">
<path d="M0 0 C10.56 0 21.12 0 32 0 C32 10.56 32 21.12 32 32 C21.44 32 10.88 32 0 32 C0 21.44 0 10.88 0 0 Z " fill="#FBFBFC" transform="translate(0,0)"/>
<path d="M0 0 C3.4375 1.9375 3.4375 1.9375 6 5 C6.80347713 8.17373465 6.76035188 10.82034669 6 14 C3.4274428 17.74190139 1.82440811 18.7830505 -2.5625 19.9375 C-6.11315791 20.00205742 -7.01917875 19.6259025 -10 18 C-12.66305206 17.52611066 -15.3050862 17.26949138 -18 17 C-18.33 15.68 -18.66 14.36 -19 13 C-18.34 13 -17.68 13 -17 13 C-17 13.66 -17 14.32 -17 15 C-15.68 14.67 -14.36 14.34 -13 14 C-12.81824219 13.15695313 -12.63648438 12.31390625 -12.44921875 11.4453125 C-12.19785156 10.34960938 -11.94648438 9.25390625 -11.6875 8.125 C-11.44386719 7.03445312 -11.20023438 5.94390625 -10.94921875 4.8203125 C-9.08919594 -0.70617503 -5.18614015 -0.61530476 0 0 Z " fill="#F8FAFB" transform="translate(21,6)"/>
<path d="M0 0 C1.134375 0.020625 2.26875 0.04125 3.4375 0.0625 C2.4475 1.5475 2.4475 1.5475 1.4375 3.0625 C1.04362212 5.38637947 0.70263915 7.72043749 0.4375 10.0625 C-1.2125 10.3925 -2.8625 10.7225 -4.5625 11.0625 C-4.5625 12.3825 -4.5625 13.7025 -4.5625 15.0625 C-7.5325 15.0625 -10.5025 15.0625 -13.5625 15.0625 C-13.5625 14.0725 -13.5625 13.0825 -13.5625 12.0625 C-12.9025 12.0625 -12.2425 12.0625 -11.5625 12.0625 C-11.5625 12.7225 -11.5625 13.3825 -11.5625 14.0625 C-10.2425 13.7325 -8.9225 13.4025 -7.5625 13.0625 C-7.35753906 12.20785156 -7.15257812 11.35320313 -6.94140625 10.47265625 C-6.67199219 9.36792969 -6.40257812 8.26320313 -6.125 7.125 C-5.85816406 6.02285156 -5.59132813 4.92070312 -5.31640625 3.78515625 C-4.2891289 0.07524788 -4.2891289 0.07524788 0 0 Z " fill="#4670AC" transform="translate(15.5625,6.9375)"/>
<path d="M0 0 C0.66 0 1.32 0 2 0 C2.41856088 4.269321 2.48038638 6.3303705 -0.0625 9.875 C-3.53922135 12.39007502 -5.72406696 13 -10 13 C-10.99 12.01 -11.98 11.02 -13 10 C-8.545 9.505 -8.545 9.505 -4 9 C-4 8.34 -4 7.68 -4 7 C-5.65 7 -7.3 7 -9 7 C-9 6.67 -9 6.34 -9 6 C-6.69 6 -4.38 6 -2 6 C-1.34 4.02 -0.68 2.04 0 0 Z " fill="#3866A7" transform="translate(25,13)"/>
<path d="M0 0 C0.66 0.66 1.32 1.32 2 2 C4.57061311 2.64767793 4.57061311 2.64767793 7 3 C6.2890625 4.91796875 6.2890625 4.91796875 5 7 C-0.87920004 9.41506173 -6.87876532 9.13356198 -13 8 C-13 7.67 -13 7.34 -13 7 C-9.535 6.505 -9.535 6.505 -6 6 C-5.67 4.68 -5.34 3.36 -5 2 C-3.35 2 -1.7 2 0 2 C0 1.34 0 0.68 0 0 Z " fill="#AFBED8" transform="translate(16,15)"/>
<path d="M0 0 C0.33 0 0.66 0 1 0 C1.08004482 3.5219721 1.04005702 6.61981469 0 10 C-1.65 10 -3.3 10 -5 10 C-5 9.34 -5 8.68 -5 8 C-5.66 7.67 -6.32 7.34 -7 7 C-6.21625 6.401875 -5.4325 5.80375 -4.625 5.1875 C-1.85425677 3.08914751 -1.85425677 3.08914751 0 0 Z " fill="#D8E0EB" transform="translate(9,11)"/>
<path d="M0 0 C4.35357983 -0.43535798 7.04099736 -0.38921814 10.4375 2.375 C13 5 13 5 13 7 C12.01 7.495 12.01 7.495 11 8 C10.01 9.485 10.01 9.485 9 11 C9 8.36 9 5.72 9 3 C8.2575 3.061875 7.515 3.12375 6.75 3.1875 C3.54616994 2.96905704 2.35968744 2.09749995 0 0 Z " fill="#A9BAD5" transform="translate(14,6)"/>
<path d="M0 0 C0.66 0 1.32 0 2 0 C2.125 3.375 2.125 3.375 2 7 C1.34 7.66 0.68 8.32 0 9 C0 8.01 0 7.02 0 6 C-0.66 6 -1.32 6 -2 6 C-1.34 4.02 -0.68 2.04 0 0 Z " fill="#5779B0" transform="translate(25,13)"/>
<path d="M0 0 C3.375 -0.125 3.375 -0.125 7 0 C7.66 0.66 8.32 1.32 9 2 C8.67 2.33 8.34 2.66 8 3 C4.5 2.6875 4.5 2.6875 1 2 C0.67 1.34 0.34 0.68 0 0 Z " fill="#4C77B1" transform="translate(12,23)"/>
<path d="M0 0 C0.66 0.33 1.32 0.66 2 1 C2.625 3.0625 2.625 3.0625 3 5 C1.35 5 -0.3 5 -2 5 C-1.125 1.125 -1.125 1.125 0 0 Z " fill="#ECF0F5" transform="translate(6,16)"/>
</svg>
